<?xml version="1.0" standalone="no"?>
<!DOCTYPE svg PUBLIC "-//W3C//DTD SVG 20010904//EN"
 "http://www.w3.org/TR/2001/REC-SVG-20010904/DTD/svg10.dtd">
<svg version="1.0" xmlns="http://www.w3.org/2000/svg"
 width="418.000000pt" height="418.000000pt" viewBox="0 0 418.000000 418.000000"
 preserveAspectRatio="xMidYMid meet">
<metadata>
Created by potrace 1.14, written by Peter Selinger 2001-2017
</metadata>
<g transform="translate(0.000000,418.000000) scale(0.100000,-0.100000)"
fill="#000000" stroke="none">
<path d="M1810 4163 c-257 -40 -491 -116 -710 -231 -71 -37 -273 -169 -305
-199 -11 -10 -33 -29 -50 -41 -44 -34 -159 -147 -229 -225 -261 -292 -446
-699 -500 -1102 -17 -130 -17 -411 1 -550 27 -213 99 -448 200 -654 199 -404
551 -754 948 -943 33 -16 67 -32 76 -37 52 -29 281 -106 379 -128 157 -34 238
-41 470 -41 194 0 266 3 345 18 100 18 227 46 255 57 8 3 21 7 28 9 34 7 216
82 296 121 321 160 614 418 806 708 29 44 60 91 70 105 38 57 140 283 178 395
81 241 112 452 106 710 -4 166 -5 174 -35 350 -23 137 -88 339 -154 482 -206
442 -566 805 -1008 1013 -146 69 -348 137 -457 155 -19 3 -64 12 -100 19 -61
13 -541 20 -610 9z"/>
</g>
</svg>
